<?xml version="1.0" standalone="no"?>
<!DOCTYPE svg PUBLIC "-//W3C//DTD SVG 20010904//EN"
 "http://www.w3.org/TR/2001/REC-SVG-20010904/DTD/svg10.dtd">
<svg version="1.0" xmlns="http://www.w3.org/2000/svg"
 width="1002.000000pt" height="1002.000000pt" viewBox="0 0 1002.000000 1002.000000"
 preserveAspectRatio="xMidYMid meet">
<metadata>
Created by potrace 1.11, written by Peter Selinger 2001-2013
</metadata>
<g transform="translate(0.000000,1002.000000) scale(0.100000,-0.100000)"
fill="#000000" stroke="none">
<path d="M5037 9194 c-1 -1 -60 -4 -132 -8 -146 -7 -165 -9 -320 -37 -150 -27
-138 -25 -267 -64 -285 -86 -540 -213 -783 -389 -38 -28 -81 -61 -95 -72 -309
-261 -509 -509 -674 -833 -194 -380 -281 -750 -280 -1181 1 -195 10 -297 45
-480 75 -387 242 -758 486 -1077 31 -40 63 -74 72 -74 9 -1 25 -3 36 -4 11 -1
63 -6 115 -10 52 -4 108 -8 125 -10 16 -2 68 -7 115 -10 47 -3 101 -8 120 -10
104 -11 215 -18 297 -19 78 -1 96 2 120 20 55 41 64 74 79 284 4 68 13 175 20
255 3 33 7 87 9 120 5 76 14 187 21 245 4 41 1 50 -39 105 -95 131 -185 340
-203 472 -3 26 -8 57 -10 68 -7 29 -5 243 2 284 43 275 145 481 329 667 93 94
193 167 304 224 80 40 249 95 321 105 30 4 64 9 75 12 61 12 225 4 345 -18
171 -32 393 -137 515 -245 17 -14 41 -36 55 -48 41 -35 120 -127 160 -186 44
-65 123 -210 114 -210 -4 0 -2 -6 3 -12 6 -7 20 -42 31 -78 111 -351 57 -717
-150 -1017 -60 -87 -179 -212 -250 -263 -36 -25 -47 -38 -43 -54 3 -17 10 -77
17 -143 1 -5 14 -46 29 -92 98 -288 325 -499 622 -576 76 -20 110 -23 216 -20
69 1 137 5 151 8 115 22 212 62 246 100 84 92 228 293 293 408 89 155 222 464
245 570 3 13 15 60 26 104 49 190 74 403 74 620 0 98 -10 281 -18 320 -2 11
-7 43 -10 70 -4 28 -11 68 -16 90 -5 22 -12 56 -15 75 -3 19 -17 73 -31 120
-14 47 -26 90 -27 95 -14 51 -21 70 -77 210 -215 536 -645 1009 -1170 1288
-90 48 -227 110 -290 132 -3 1 -12 5 -20 8 -67 28 -321 98 -409 113 -18 3 -42
7 -51 9 -10 2 -40 6 -67 10 -26 4 -59 9 -73 11 -41 6 -308 22 -313 18z"/>
<path d="M4628 7131 c-73 -36 -99 -127 -55 -192 79 -118 256 -57 244 84 -8 95
-105 150 -189 108z"/>
<path d="M5352 7142 c-30 -5 -92 -67 -94 -95 -4 -62 -2 -74 15 -104 52 -91
189 -86 236 9 52 105 -36 211 -157 190z"/>
<path d="M4690 6475 c0 -23 75 -190 115 -254 48 -80 116 -148 170 -172 137
-60 289 60 427 338 22 44 37 86 34 91 -4 7 -133 11 -376 11 -310 0 -370 -2
-370 -14z"/>
<path d="M2800 4095 c-86 -14 -132 -38 -180 -92 -71 -81 -70 -71 -70 -685 0
-359 4 -564 11 -592 16 -66 75 -136 143 -171 48 -24 73 -30 135 -32 193 -6
317 119 316 317 l0 55 -30 -3 c-16 -2 -54 -10 -82 -18 -42 -12 -53 -20 -54
-37 -3 -52 -7 -66 -25 -90 -58 -79 -201 -59 -229 32 -4 14 -7 258 -7 543 0
565 -2 545 57 584 32 21 94 25 133 8 48 -20 69 -62 71 -140 1 -28 4 -30 34
-28 17 1 55 3 83 3 l52 1 -4 60 c-5 82 -9 101 -32 147 -55 108 -182 162 -322
138z"/>
<path d="M3302 4071 c-4 -3 -8 -347 -8 -763 1 -671 2 -758 16 -759 41 -2 154
2 158 6 3 2 5 162 4 354 l0 349 101 -2 c115 -3 141 -13 158 -64 7 -20 11 -148
12 -337 l0 -305 29 -1 c15 0 51 0 78 0 28 0 55 0 61 0 7 1 9 106 7 339 -3 374
-3 373 -72 428 l-33 27 32 28 c57 50 64 87 62 303 -2 187 -3 192 -30 248 -16
32 -45 71 -65 88 -64 52 -116 63 -319 65 -101 1 -187 -1 -191 -4z m362 -186
c58 -28 66 -56 67 -246 2 -197 -14 -219 -159 -223 -45 -2 -85 0 -90 3 -9 6
-15 425 -7 466 4 18 11 20 80 18 44 -1 89 -9 109 -18z"/>
<path d="M4085 4070 c-1 -3 -2 -347 -2 -765 l0 -760 206 2 c113 1 227 2 254 2
l47 1 0 85 0 85 -42 1 c-24 0 -97 1 -163 2 l-120 2 -1 261 -1 261 71 1 c39 0
91 1 116 1 l45 1 -2 81 c-1 45 -4 84 -7 87 -3 3 -54 6 -113 6 l-108 1 0 235 0
235 162 3 161 2 0 85 c0 47 -3 86 -6 86 -23 4 -494 3 -497 -1z"/>
<path d="M4935 4070 c-4 -7 -13 -56 -20 -105 -3 -23 -8 -52 -10 -65 -3 -14 -8
-47 -11 -75 -4 -27 -8 -53 -10 -56 -2 -4 -6 -24 -10 -45 -3 -22 -7 -50 -10
-64 -9 -54 -75 -447 -80 -475 -2 -16 -9 -55 -14 -85 -5 -30 -12 -71 -15 -90
-3 -19 -10 -60 -15 -90 -5 -30 -12 -68 -14 -85 -3 -16 -12 -69 -20 -116 -8
-48 -18 -106 -21 -130 l-6 -44 48 2 c26 1 67 2 89 2 l41 1 7 58 c7 63 14 105
21 139 5 21 10 22 144 22 l139 0 17 -112 17 -112 85 2 c47 1 87 3 88 5 2 2 -1
28 -6 58 -5 30 -11 66 -13 80 -2 14 -12 68 -21 120 -10 52 -19 105 -20 117 -2
11 -5 29 -9 40 -3 10 -8 38 -11 63 -5 37 -28 169 -59 345 -28 161 -40 226 -56
325 -11 63 -22 125 -24 136 -2 12 -7 37 -10 55 -3 19 -7 43 -10 54 -2 11 -7
44 -11 73 -4 28 -12 53 -18 53 -42 4 -169 4 -172 -1z m99 -455 c4 -22 9 -56
12 -75 3 -19 7 -46 9 -60 5 -27 8 -46 25 -155 18 -113 18 -116 34 -211 9 -51
18 -115 22 -143 l6 -51 -116 0 c-64 0 -116 1 -116 3 0 2 4 28 10 58 5 30 12
74 15 99 3 25 8 52 10 60 2 8 6 38 10 65 3 28 12 91 20 140 8 50 17 106 20
125 17 122 28 190 31 188 1 -2 5 -21 8 -43z"/>
<path d="M5373 4067 c-2 -4 -3 -42 -2 -85 l2 -77 86 -5 86 -5 0 -672 c0 -370
3 -673 7 -674 10 -1 76 -1 131 0 l42 1 0 673 0 672 87 3 87 3 -2 87 -2 87
-258 0 c-143 0 -261 -3 -264 -8z"/>
<path d="M6026 4070 c-8 -14 -3 -1520 5 -1521 50 -4 161 0 167 5 8 9 10 1515
2 1517 -18 5 -172 4 -174 -1z"/>
<path d="M6335 4022 c3 -29 8 -59 10 -65 2 -7 6 -28 9 -47 5 -30 20 -117 42
-245 3 -16 7 -41 9 -55 9 -61 16 -106 20 -120 3 -8 7 -33 10 -55 3 -22 10 -62
15 -90 6 -27 12 -68 15 -90 3 -22 8 -51 11 -65 12 -64 14 -76 19 -110 3 -20 7
-45 9 -55 7 -36 19 -110 21 -125 2 -8 5 -28 8 -45 3 -16 15 -86 27 -155 11
-69 23 -132 25 -140 5 -14 30 -16 161 -11 18 1 23 9 28 44 9 59 15 92 26 152
5 28 11 64 14 80 5 34 64 377 71 415 3 13 7 42 11 64 3 22 7 43 9 46 2 3 6 30
10 60 3 30 8 62 10 70 4 14 8 35 20 113 3 17 12 68 20 112 8 44 17 95 20 113
5 34 8 51 29 172 8 41 12 77 9 80 -6 7 -164 7 -168 0 -2 -4 -9 -38 -15 -76 -6
-38 -13 -82 -16 -99 -2 -16 -6 -41 -9 -55 -2 -14 -7 -42 -10 -62 -3 -21 -7
-55 -10 -75 -3 -21 -8 -49 -10 -63 -6 -33 -11 -61 -35 -220 -11 -74 -23 -146
-25 -160 -2 -14 -7 -43 -10 -65 -13 -86 -15 -101 -20 -125 -2 -14 -7 -43 -10
-64 -3 -22 -7 -41 -9 -43 -3 -3 -12 58 -21 132 -1 12 -14 92 -20 126 -2 13 -6
42 -9 64 -3 22 -8 54 -11 70 -7 41 -14 83 -20 130 -3 22 -10 65 -15 95 -5 30
-12 75 -15 100 -3 25 -8 52 -10 60 -2 8 -6 35 -9 60 -3 25 -8 54 -10 65 -2 11
-9 62 -17 113 -7 50 -15 93 -18 93 -3 1 -43 2 -89 3 l-83 2 6 -54z"/>
<path d="M7150 3313 l0 -763 53 -1 c65 -1 345 -1 409 0 l48 1 -3 86 -2 87
-162 0 -162 0 2 261 2 261 113 0 c67 0 112 4 113 10 5 70 2 151 -7 159 -6 7
-52 10 -116 9 l-106 -1 0 239 0 239 164 0 163 0 -2 87 -2 88 -252 0 -253 0 0
-762z"/>
<path d="M4765 2333 c-104 -20 -179 -77 -224 -173 l-26 -55 1 -560 0 -560 25
-55 c49 -106 144 -167 272 -173 146 -8 271 70 314 198 15 44 17 107 18 570 1
286 -3 543 -8 570 -24 137 -137 232 -284 238 -38 2 -77 2 -88 0z m130 -187
c70 -30 69 -20 69 -601 1 -493 0 -522 -18 -552 -34 -56 -119 -77 -183 -44 -70
36 -67 9 -68 590 0 387 3 531 12 552 25 60 113 86 188 55z"/>
<path d="M3105 1548 l0 -763 90 0 90 0 2 275 c1 151 2 286 3 300 0 26 1 26 79
25 196 -2 300 62 342 210 19 67 20 429 1 500 -27 100 -84 163 -177 196 -46 16
-83 19 -242 19 l-188 0 0 -762z m373 568 c60 -31 67 -59 67 -271 0 -213 -7
-239 -71 -270 -41 -19 -184 -21 -185 -2 0 15 0 444 0 513 l1 51 78 -2 c49 -2
90 -9 110 -19z"/>
<path d="M3875 1550 c0 -670 2 -761 15 -764 8 -2 122 -4 253 -4 l237 1 0 87 0
88 -132 0 c-73 0 -146 1 -163 1 l-30 1 0 260 0 260 25 1 c14 1 57 1 95 0 115
0 110 -5 110 91 l0 83 -102 1 c-56 1 -108 4 -115 7 -10 3 -13 54 -12 233 1
126 2 231 3 234 0 3 72 5 159 5 l157 0 3 88 3 87 -253 0 -253 0 0 -760z"/>
<path d="M5310 1547 l0 -764 91 1 91 1 2 300 1 299 107 1 c141 2 208 30 268
111 50 69 60 126 60 348 1 219 -9 278 -54 346 -29 45 -94 91 -149 107 -21 6
-122 12 -227 13 l-190 1 0 -764z m379 567 c58 -38 64 -64 63 -282 -1 -136 -4
-170 -19 -200 -26 -52 -70 -72 -164 -72 l-76 0 -1 284 -1 285 22 3 c52 8 150
-2 176 -18z"/>
<path d="M6082 1548 l3 -763 230 0 230 0 3 87 3 86 -98 0 c-54 1 -119 1 -144
1 l-46 1 -1 663 c0 364 -1 668 -1 675 -1 9 -26 12 -91 12 l-90 0 2 -762z"/>
<path d="M6671 1550 c0 -701 2 -759 17 -764 9 -2 124 -4 255 -4 l237 1 0 87 0
87 -132 1 c-73 0 -146 1 -163 1 l-30 1 0 260 c0 225 2 260 15 261 8 1 59 1
113 0 53 0 97 3 98 7 1 4 2 42 3 84 2 63 -1 79 -13 82 -9 3 -58 5 -109 4 -51
0 -96 2 -100 6 -7 8 -13 428 -6 456 3 13 29 15 161 15 l158 0 3 88 3 87 -255
0 -255 0 0 -760z"/>
</g>
</svg>
